Coordinates
version=1
nRows=7
nColumns=40
inDegrees=yes

Units are S.I. units (second, meters, Newtons, ...)
Angles are in degrees.

endheader
time	pelvis_tilt	pelvis_list	pelvis_rotation	pelvis_tx	pelvis_ty	pelvis_tz	hip_flexion_r	hip_adduction_r	hip_rotation_r	knee_angle_r	knee_angle_r_beta	ankle_angle_r	subtalar_angle_r	mtp_angle_r	hip_flexion_l	hip_adduction_l	hip_rotation_l	knee_angle_l	knee_angle_l_beta	ankle_angle_l	subtalar_angle_l	mtp_angle_l	lumbar_extension	lumbar_bending	lumbar_rotation	arm_flex_r	arm_add_r	arm_rot_r	elbow_flex_r	pro_sup_r	wrist_flex_r	wrist_dev_r	arm_flex_l	arm_add_l	arm_rot_l	elbow_flex_l	pro_sup_l	wrist_flex_l	wrist_dev_l
     13.79500000	     -6.04581799	     -4.14126486	      3.81543881	      0.97319037	      0.91584923	      0.43965855	      6.38741042	     -2.83757777	    -13.75331196	     37.12319931	     37.12319931	     12.57924710	     -8.63933663	    -12.15884083	     29.99048589	     -4.64186010	     -2.71334411	     26.58113731	     26.58113731	      6.68390681	    -11.17855757	      2.91399441	     -9.71060062	      3.02097560	      4.74161842	     33.22967629	    -13.78846347	      4.57882696	    131.70480441	     43.30119875	      0.00000000	      0.00000000	    -10.31488906	     -7.22530243	     -6.72246943	     27.41753221	     45.97237262	      0.00000000	      0.00000000
     13.80657143	     -6.14789166	     -4.11278545	      3.59376280	      0.97262808	      0.91710486	      0.43763256	      8.45944295	     -3.33778475	    -12.92001413	     41.12235119	     41.12235119	     10.61505918	    -11.12413136	    -12.01832046	     29.33934795	     -4.65448000	     -3.15488686	     26.30448433	     26.30448433	      7.22129762	    -10.75200362	      2.39781085	     -9.58974973	      2.92023771	      4.85001508	     31.24153345	    -14.47667303	      5.49178754	    131.88921612	     43.26891153	      0.00000000	      0.00000000	     -9.09733389	     -7.31944191	     -6.68127781	     28.47006191	     45.98471953	      0.00000000	      0.00000000
     13.81814286	     -6.17187869	     -3.89591465	      3.36861872	      0.97195171	      0.91837621	      0.43555426	     10.51696170	     -4.17673732	    -12.42977395	     45.16758148	     45.16758148	      8.88467067	    -12.63953908	    -11.64421286	     28.53708537	     -4.46073968	     -3.68597409	     25.93201847	     25.93201847	      7.67354103	    -10.41262935	      2.07099475	     -9.58597336	      2.62590438	      4.58516526	     29.40204602	    -14.49357290	      6.07488077	    131.37708630	     43.26057085	      0.00000000	      0.00000000	     -7.78653385	     -7.40571395	     -6.63537463	     29.22851225	     45.99844668	      0.00000000	      0.00000000
     13.82971429	     -6.17229116	     -3.75605190	      3.11041824	      0.97116515	      0.91951531	      0.43376436	     12.63905924	     -4.80281479	    -11.78923470	     49.09842287	     49.09842287	      7.27406522	    -14.19814709	    -10.83974569	     27.73987143	     -4.34747045	     -4.10699682	     25.58566883	     25.58566883	      8.12108092	    -10.12293140	      1.70979418	     -9.60534643	      2.42186741	      4.42396459	     27.46333935	    -14.67295825	      6.64774840	    130.56280881	     43.26113003	      0.00000000	      0.00000000	     -6.45170727	     -7.54853006	     -6.60642893	     30.07054214	     46.01490537	      0.00000000	      0.00000000
     13.84128571	     -6.14407241	     -3.74686418	      2.86597799	      0.97025337	      0.92054140	      0.43220726	     14.95833704	     -5.15271775	    -11.04033488	     53.27160926	     53.27160926	      7.64570075	    -14.61125486	     -4.50957053	     26.93045865	     -4.38079173	     -4.49066712	     25.18884489	     25.18884489	      8.08267872	     -9.93617384	      0.21060436	     -9.65587483	      2.35088162	      4.33551615	     25.45154044	    -15.05002620	      7.09284534	    129.33836218	     43.34221533	      0.00000000	      0.00000000	     -5.41767920	     -7.83471944	     -5.96679931	     32.01440371	     45.93985936	      0.00000000	      0.00000000
     13.85285714	     -6.10908281	     -3.59694690	      2.59675844	      0.96924358	      0.92151209	      0.43063733	     17.09010128	     -5.66719229	    -10.41220173	     56.73133481	     56.73133481	      6.31994523	    -15.73226125	     -3.95848715	     26.13325945	     -4.23399319	     -4.81802721	     24.87144749	     24.87144749	      8.47961280	     -9.80163173	      0.01656202	     -9.74168762	      2.16201157	      4.13754314	     23.48782476	    -15.20962329	      7.58232598	    127.93878502	     43.36524045	      0.00000000	      0.00000000	     -3.92317356	     -8.02848251	     -5.92432220	     32.72906125	     45.95835249	      0.00000000	      0.00000000
     13.86442857	     -6.03889338	     -3.51119343	      2.35473646	      0.96814822	      0.92243957	      0.42920228	     19.18642116	     -6.01089186	     -9.76171983	     59.90971185	     59.90971185	      5.38511222	    -16.61697932	     -3.11175929	     25.33526564	     -4.14644726	     -5.06866359	     24.58239340	     24.58239340	      8.82224440	     -9.64208158	     -0.23463793	     -9.83532278	      2.06001521	      4.02377724	     21.48573420	    -15.49353245	      7.93403836	    126.06854449	     43.40861384	      0.00000000	      0.00000000	     -2.38462271	     -8.23645064	     -5.87533956	     33.57395314	     45.97670732	      0.00000000	      0.00000000
